<svg width="29" height="25" viewBox="0 0 29 25" fill="none" xmlns="http://www.w3.org/2000/svg">
<path d="M27.6818 9.19389H21.3677L15.5941 0.553214C15.3436 0.184405 14.9218 0 14.5 0C14.0782 0 13.6564 0.184405 13.4059 0.566386L7.63227 9.19389H1.31818C0.593182 9.19389 0 9.78662 0 10.5111C0 10.6296 0.0131818 10.7482 0.0527272 10.8667L3.40091 23.0769C3.70409 24.1834 4.71909 25 5.93182 25H23.0682C24.2809 25 25.2959 24.1834 25.6123 23.0769L28.9605 10.8667L29 10.5111C29 9.78662 28.4068 9.19389 27.6818 9.19389ZM14.5 3.66175L18.1909 9.19389H10.8091L14.5 3.66175ZM23.0682 22.3656L5.945 22.3788L3.045 11.8282H25.9682L23.0682 22.3656ZM14.5 14.4626C13.05 14.4626 11.8636 15.6481 11.8636 17.0969C11.8636 18.5458 13.05 19.7313 14.5 19.7313C15.95 19.7313 17.1364 18.5458 17.1364 17.0969C17.1364 15.6481 15.95 14.4626 14.5 14.4626Z" fill="#2490A9"/>
</svg>
