<svg width="40" height="40" viewBox="0 0 40 40" fill="none" xmlns="http://www.w3.org/2000/svg">
<circle cx="20" cy="20" r="19.5" fill="#CCF2F4" stroke="#00A0B2"/>
<rect width="20" height="20" transform="translate(10 10)" fill="#CCF2F4"/>
<path d="M22.5511 22.4218C22.5025 22.4218 22.4534 22.4135 22.4059 22.3964C22.2352 22.3352 22.1214 22.1734 22.1214 21.9921V18.7751L14.0489 14.115C13.8434 13.9964 13.773 13.7336 13.8916 13.5281C14.0102 13.3226 14.273 13.2522 14.4786 13.3708L22.766 18.1548C22.899 18.2316 22.9809 18.3735 22.9809 18.527V20.7961L23.8889 19.6956C23.9914 19.5713 24.1549 19.5149 24.3123 19.5493L25.1207 19.7265V17.0436L17.0432 12.383C16.8376 12.2644 16.7672 12.0016 16.8857 11.7961C17.0043 11.5905 17.2671 11.52 17.4727 11.6386L25.765 16.4232C25.898 16.5 25.9799 16.6419 25.9799 16.7954V20.2605C25.9799 20.3907 25.921 20.5138 25.8196 20.5953C25.7182 20.6769 25.5853 20.7081 25.4583 20.6803L24.3847 20.445L22.8826 22.2655C22.7994 22.3664 22.6769 22.4218 22.5511 22.4218Z" fill="#00A0B2"/>
<path d="M28.6872 15.056C28.686 15.053 28.6849 15.05 28.6837 15.047C28.6813 15.0417 28.6785 15.0365 28.6759 15.0312C28.6391 14.9536 28.5801 14.8871 28.5032 14.8426L20.215 10.0576C20.082 9.98081 19.9182 9.98081 19.7853 10.0576L11.5576 14.8078C11.468 14.8416 11.3892 14.9053 11.3376 14.9946C11.2911 15.0752 11.274 15.1645 11.2823 15.2506V24.7851C11.2823 24.9387 11.3642 25.0805 11.4971 25.1573L19.7853 29.9424C19.9183 30.0192 20.082 30.0192 20.215 29.9424L28.5032 25.1573C28.6361 25.0805 28.718 24.9386 28.718 24.7851V15.2604C28.7244 15.1923 28.7147 15.1223 28.6872 15.056ZM20.0001 10.9258L27.4343 15.2179L20.0004 19.5038L12.5744 15.213L20.0001 10.9258ZM12.1416 15.9555L19.5704 20.2479V28.8261L12.1416 24.5371V15.9555ZM20.4298 28.8261V20.2482L27.8586 15.9652V24.5371L20.4298 28.8261Z" fill="#00A0B2"/>
<path d="M15 25.1686C14.9271 25.1686 14.8532 25.15 14.7855 25.111L13.0098 24.0858C12.8043 23.9671 12.7339 23.7043 12.8526 23.4988C12.9712 23.2933 13.2341 23.223 13.4395 23.3415L15.2152 24.3667C15.4207 24.4854 15.4912 24.7482 15.3725 24.9537C15.2929 25.0915 15.1485 25.1686 15 25.1686Z" fill="#00A0B2"/>
<path d="M14.2008 22.9565C14.1279 22.9565 14.0541 22.9379 13.9864 22.8988L13.0098 22.3351C12.8043 22.2164 12.7339 21.9536 12.8526 21.7481C12.9712 21.5426 13.2341 21.4722 13.4395 21.5908L14.416 22.1546C14.6216 22.2733 14.692 22.5361 14.5733 22.7416C14.4937 22.8794 14.3493 22.9565 14.2008 22.9565Z" fill="#00A0B2"/>
</svg>
