<svg width="34" height="31" viewBox="0 0 34 31" fill="none" xmlns="http://www.w3.org/2000/svg">
<path d="M32.1288 1.96465C31.8773 1.91013 31.6127 1.93956 31.383 2.0476L29.7501 2.79111L28.1032 2.04033C27.9557 1.97308 27.793 1.93807 27.6281 1.93807C27.4631 1.93807 27.3005 1.97308 27.1529 2.04033L25.4855 2.79172L23.8399 2.04033C23.692 1.97259 23.5287 1.93731 23.3631 1.93731C23.1976 1.93731 23.0343 1.97259 22.8863 2.04033L21.2501 2.7893L19.6265 2.04215C19.4789 1.97394 19.3159 1.9381 19.1505 1.93746C18.985 1.93683 18.8217 1.97144 18.6735 2.03852L17.0001 2.79233L15.3532 2.03973C15.2054 1.97251 15.0426 1.93752 14.8774 1.93752C14.7123 1.93752 14.5494 1.97251 14.4016 2.03973L12.7501 2.79111L11.1006 2.03973C10.8879 1.94254 10.6456 1.91322 10.4125 1.95647C10.1794 1.99972 9.96901 2.11304 9.81493 2.27828C9.64886 2.45875 9.55932 2.68755 9.56259 2.92311V17.4374L9.56591 17.4404H22.3126C22.8762 17.4404 23.4167 17.6446 23.8152 18.0079C24.2137 18.3713 24.4376 18.8641 24.4376 19.3779V25.6718C24.4376 27.5445 26.6336 29.0624 28.6876 29.0624H29.4845C30.4003 29.0624 31.2786 28.7307 31.9262 28.1402C32.5738 27.5498 32.9376 26.749 32.9376 25.914V2.90615C32.9378 2.68933 32.8582 2.47871 32.7115 2.30802C32.5649 2.13732 32.3597 2.01642 32.1288 1.96465ZM27.6251 14.5312H19.1583C18.5845 14.5312 18.0891 14.1291 18.0639 13.606C18.0575 13.4753 18.0801 13.3447 18.1305 13.2222C18.1809 13.0996 18.2581 12.9877 18.3572 12.8931C18.4564 12.7985 18.5756 12.7232 18.7075 12.6717C18.8395 12.6202 18.9816 12.5937 19.1251 12.5937H27.5919C28.1656 12.5937 28.661 12.9957 28.6863 13.5188C28.6927 13.6495 28.6701 13.7801 28.6196 13.9027C28.5692 14.0252 28.4921 14.1371 28.3929 14.2317C28.2938 14.3263 28.1746 14.4017 28.0426 14.4531C27.9107 14.5046 27.7686 14.5311 27.6251 14.5312ZM27.6251 9.6874H14.9083C14.3345 9.6874 13.8391 9.28537 13.8139 8.76225C13.8075 8.63151 13.8301 8.50094 13.8805 8.37841C13.9309 8.25587 14.0081 8.14393 14.1072 8.04932C14.2064 7.95471 14.3256 7.8794 14.4575 7.82794C14.5895 7.77648 14.7316 7.74993 14.8751 7.7499H27.5919C28.1656 7.7499 28.661 8.15194 28.6863 8.67506C28.6927 8.8058 28.6701 8.93637 28.6196 9.0589C28.5692 9.18143 28.4921 9.29338 28.3929 9.38799C28.2938 9.4826 28.1746 9.55791 28.0426 9.60937C27.9107 9.66083 27.7686 9.68737 27.6251 9.6874Z" fill="#CCF2F4"/>
<path d="M22.3125 25.6719V20.3438C22.3125 20.0868 22.2006 19.8404 22.0013 19.6587C21.802 19.4771 21.5318 19.375 21.25 19.375H3.1875C2.62388 19.3766 2.08389 19.5817 1.68566 19.9453C1.28743 20.309 1.06338 20.8016 1.0625 21.3155C1.0625 24.3762 1.44633 25.6489 2.02273 26.6176C3.0009 28.2627 4.77195 29.0625 7.4375 29.0625H23.7522C23.8046 29.0625 23.8558 29.0484 23.8995 29.022C23.9431 28.9955 23.9772 28.9579 23.9974 28.9138C24.0177 28.8697 24.0232 28.8212 24.0132 28.7743C24.0032 28.7274 23.9783 28.6842 23.9414 28.6502C23.3132 28.0756 22.3125 27.3066 22.3125 25.6719Z" fill="#CCF2F4"/>
</svg>
