<svg width="40" height="40" viewBox="0 0 40 40" fill="none" xmlns="http://www.w3.org/2000/svg">
<path d="M20 3.75C11.0258 3.75 3.75 11.0258 3.75 20C3.75 28.9742 11.0258 36.25 20 36.25C28.9742 36.25 36.25 28.9742 36.25 20C36.25 11.0258 28.9742 3.75 20 3.75ZM26.5383 25.832C25.4142 27.0865 23.9526 27.9906 22.3282 28.4363C20.7039 28.882 18.9855 28.8504 17.3786 28.3454C15.7717 27.8403 14.3443 26.8831 13.267 25.5883C12.1898 24.2934 11.5082 22.7157 11.3039 21.0437C11.0454 21.2148 10.7326 21.2837 10.4262 21.2371C10.1198 21.1905 9.84157 21.0317 9.64562 20.7916C9.44967 20.5514 9.34992 20.247 9.36575 19.9375C9.38157 19.6279 9.51183 19.3353 9.73125 19.1164L11.575 17.2727C11.806 17.0417 12.1182 16.9103 12.4448 16.9067C12.7715 16.903 13.0866 17.0274 13.3227 17.2531L15.25 19.0969C15.4664 19.3023 15.6022 19.5783 15.6329 19.875C15.6636 20.1718 15.5871 20.4698 15.4173 20.7151C15.2474 20.9604 14.9955 21.1369 14.7069 21.2126C14.4183 21.2884 14.1122 21.2584 13.8438 21.1281C14.0578 22.2801 14.5905 23.3491 15.3813 24.2138C16.1721 25.0784 17.1894 25.7042 18.3178 26.02C19.4461 26.3359 20.6404 26.3292 21.7652 26.0007C22.89 25.6723 23.9002 25.0352 24.6813 24.1617C24.9054 23.9246 25.2134 23.7846 25.5394 23.7715C25.8655 23.7584 26.1837 23.8734 26.4261 24.0917C26.6685 24.3101 26.816 24.6146 26.837 24.9402C26.8579 25.2658 26.7507 25.5867 26.5383 25.8344V25.832ZM30.2695 20.8836L28.4258 22.7273C28.1948 22.9583 27.8826 23.0897 27.5559 23.0933C27.2293 23.097 26.9142 22.9726 26.6781 22.7469L24.7508 20.9031C24.5385 20.6988 24.4052 20.4261 24.3745 20.1331C24.3437 19.8401 24.4174 19.5456 24.5826 19.3017C24.7478 19.0577 24.9938 18.88 25.2773 18.7998C25.5608 18.7195 25.8635 18.742 26.132 18.8633C25.9174 17.7138 25.3852 16.6474 24.5958 15.7848C23.8064 14.9221 22.7912 14.2977 21.6653 13.9822C20.5393 13.6666 19.3475 13.6726 18.2248 13.9994C17.1021 14.3262 16.0932 14.9607 15.3125 15.8313C15.2029 15.9534 15.0703 16.0528 14.9222 16.1238C14.7742 16.1947 14.6136 16.2358 14.4497 16.2447C14.2858 16.2536 14.1217 16.2301 13.9669 16.1756C13.812 16.1211 13.6695 16.0366 13.5473 15.927C13.4251 15.8173 13.3257 15.6847 13.2547 15.5367C13.1838 15.3886 13.1427 15.2281 13.1338 15.0642C13.1249 14.9002 13.1484 14.7362 13.2029 14.5813C13.2575 14.4265 13.3419 14.2839 13.4516 14.1617C14.5765 12.9074 16.0393 12.004 17.6646 11.5597C19.2898 11.1154 21.0087 11.1491 22.6154 11.6567C24.222 12.1643 25.6482 13.1243 26.7232 14.4217C27.7982 15.7191 28.4764 17.2989 28.6766 18.9719C28.9333 18.7968 29.246 18.7237 29.5537 18.7667C29.8614 18.8097 30.1421 18.9658 30.341 19.2045C30.5399 19.4432 30.6428 19.7474 30.6296 20.0578C30.6164 20.3683 30.488 20.6627 30.2695 20.8836Z" fill="#CCF2F4"/>
</svg>
