<svg width="40" height="40" viewBox="0 0 40 40" fill="none" xmlns="http://www.w3.org/2000/svg">
<circle cx="20" cy="20" r="19.5" fill="#CCF2F4" stroke="#00A0B2"/>
<path d="M26.65 28.35L27.35 27.65L25.5 25.8V23H24.5V26.2L26.65 28.35ZM19 10.275C19.3167 10.0917 19.65 10 20 10C20.35 10 20.6833 10.0917 21 10.275L28 14.3C28.3167 14.4833 28.5625 14.725 28.7375 15.025C28.9125 15.325 29 15.6583 29 16.025V20.275C28.7 20.0583 28.3833 19.8708 28.05 19.7125C27.7167 19.5542 27.3667 19.4167 27 19.3V17.1L23.4 19.175C22.4667 19.4083 21.6208 19.8042 20.8625 20.3625C20.1042 20.9208 19.4833 21.6 19 22.4V20.575L13 17.1V23.95L18.05 26.875C18.1167 27.4083 18.2417 27.9208 18.425 28.4125C18.6083 28.9042 18.8417 29.3667 19.125 29.8C19.0917 29.7833 19.0708 29.7708 19.0625 29.7625C19.0542 29.7542 19.0333 29.7417 19 29.725L12 25.7C11.6833 25.5167 11.4375 25.275 11.2625 24.975C11.0875 24.675 11 24.3417 11 23.975V16.025C11 15.6583 11.0875 15.325 11.2625 15.025C11.4375 14.725 11.6833 14.4833 12 14.3L19 10.275ZM20 12L14.075 15.425L20 18.85L25.925 15.425L20 12ZM25 31C23.6167 31 22.4375 30.5125 21.4625 29.5375C20.4875 28.5625 20 27.3833 20 26C20 24.6167 20.4875 23.4375 21.4625 22.4625C22.4375 21.4875 23.6167 21 25 21C26.3833 21 27.5625 21.4875 28.5375 22.4625C29.5125 23.4375 30 24.6167 30 26C30 27.3833 29.5125 28.5625 28.5375 29.5375C27.5625 30.5125 26.3833 31 25 31Z" fill="#00A0B2"/>
</svg>
